<svg xmlns="http://www.w3.org/2000/svg" width="600" height="400" viewBox="0 0 600 400"><rect width="100%" height="100%" fill="#DDDDDD"/><path fill="#999999" d="M130.44 206.74q1.52 0 2.72-.51 1.2-.51 2.02-1.42.82-.92 1.25-2.22.44-1.31.44-2.93v-16.89h5.25v16.89q0 2.52-.81 4.65-.81 2.14-2.32 3.69-1.51 1.55-3.68 2.41-2.16.87-4.87.87-2.73 0-4.9-.87-2.16-.86-3.67-2.41-1.51-1.55-2.32-3.69-.81-2.13-.81-4.65v-16.89h5.24v16.87q0 1.62.44 2.93.44 1.3 1.27 2.23.83.92 2.03 1.43 1.2.51 2.72.51Zm21.02-14.9.33 1.58q.6-.6 1.28-1.12.67-.52 1.42-.88.75-.36 1.61-.56.86-.21 1.87-.21 1.64 0 2.91.56 1.26.55 2.11 1.56.85 1 1.29 2.4.44 1.39.44 3.07v12.73h-4.82v-12.73q0-1.84-.84-2.84-.83-1-2.55-1-1.25 0-2.34.56-1.09.57-2.07 1.54v14.47h-4.81v-20.01h2.94q.94 0 1.23.88Zm28.39 13.96v-3.37q-2.09.1-3.51.36t-2.28.67q-.86.41-1.23.96-.37.54-.37 1.19 0 1.27.75 1.81.75.55 1.96.55 1.48 0 2.57-.54 1.08-.54 2.11-1.63Zm-10.18-10.51-.86-1.54q3.46-3.16 8.31-3.16 1.76 0 3.14.58 1.38.57 2.34 1.6.96 1.02 1.45 2.44.5 1.43.5 3.12v12.64h-2.18q-.69 0-1.06-.2-.37-.21-.58-.83l-.43-1.45q-.76.69-1.48 1.2-.72.52-1.5.87t-1.67.54q-.89.18-1.96.18-1.27 0-2.34-.34-1.07-.34-1.85-1.02-.78-.69-1.21-1.7-.43-1.01-.43-2.36 0-.76.25-1.51.26-.75.83-1.43.58-.69 1.49-1.29.92-.61 2.25-1.05 1.34-.45 3.11-.73 1.78-.29 4.06-.35v-1.17q0-2-.86-2.97-.86-.96-2.47-.96-1.17 0-1.94.27t-1.36.61l-1.06.62q-.48.27-1.06.27-.51 0-.86-.26-.35-.27-.57-.62Zm24.22 1.52v8.97q.82 1 1.78 1.41.97.41 2.04.41 1.11 0 2-.4.89-.4 1.51-1.25.63-.85.96-2.17.33-1.31.33-3.15 0-3.29-1.09-4.76-1.09-1.47-3.14-1.47-1.39 0-2.42.63t-1.97 1.78Zm0-14.82v11.43q1.21-1.27 2.68-2.02 1.47-.75 3.37-.75 1.73 0 3.13.68 1.39.69 2.37 1.96.99 1.28 1.52 3.09.52 1.82.52 4.08 0 2.44-.6 4.43-.61 1.99-1.73 3.4t-2.7 2.19q-1.58.78-3.51.78-.93 0-1.7-.18-.76-.19-1.4-.52-.64-.33-1.18-.81-.54-.48-1.02-1.06l-.22 1.34q-.11.51-.4.73-.28.21-.77.21h-3.18v-28.98h4.82Zm17.38 0h4.81v28.98h-4.81v-28.98Zm13.43 16.68h9.09q0-.94-.27-1.77-.26-.83-.79-1.45-.52-.63-1.33-.99t-1.88-.36q-2.09 0-3.29 1.19-1.2 1.19-1.53 3.38Zm12.29 2.9H224.6q.12 1.54.55 2.66.43 1.12 1.13 1.86.7.73 1.67 1.09.96.36 2.13.36t2.02-.28q.85-.27 1.48-.6.64-.33 1.11-.6.48-.28.93-.28.61 0 .9.45l1.38 1.76q-.8.93-1.79 1.57-1 .63-2.08 1.01t-2.2.54q-1.12.15-2.18.15-2.08 0-3.88-.69-1.79-.69-3.12-2.05-1.32-1.35-2.08-3.35t-.76-4.63q0-2.05.66-3.85.66-1.81 1.9-3.14 1.24-1.34 3.02-2.12 1.79-.78 4.03-.78 1.89 0 3.49.61 1.6.6 2.75 1.76 1.15 1.16 1.8 2.85.66 1.68.66 3.85 0 1.09-.24 1.47-.23.38-.89.38Zm20.88 9.71q-2.61 0-4.01-1.47-1.39-1.47-1.39-4.07v-11.17h-2.05q-.39 0-.66-.25-.27-.26-.27-.76v-1.91l3.21-.53 1.02-5.46q.09-.39.37-.61.27-.21.7-.21h2.5v6.3h5.34v3.43h-5.34v10.84q0 .94.45 1.47.46.52 1.26.52.45 0 .75-.11.3-.1.53-.22l.4-.22q.17-.11.35-.11.21 0 .35.11.14.1.29.32l1.45 2.34q-1.06.88-2.42 1.32-1.37.45-2.83.45Zm16.69-20.63q2.23 0 4.05.72 1.82.72 3.12 2.05 1.3 1.33 2 3.24.7 1.91.7 4.27 0 2.38-.7 4.29-.7 1.91-2 3.25-1.3 1.35-3.12 2.07-1.82.72-4.05.72-2.24 0-4.07-.72-1.84-.72-3.13-2.07-1.3-1.34-2.01-3.25-.71-1.91-.71-4.29 0-2.36.71-4.27.71-1.91 2.01-3.24 1.29-1.33 3.13-2.05 1.83-.72 4.07-.72Zm0 16.91q2.5 0 3.7-1.68 1.2-1.68 1.2-4.91 0-3.24-1.2-4.94-1.2-1.69-3.7-1.69-2.53 0-3.75 1.7-1.22 1.71-1.22 4.93 0 3.21 1.22 4.9 1.22 1.69 3.75 1.69Zm23.09-25.57h4.82v28.98h-4.82v-28.98Zm18.49 8.66q2.22 0 4.04.72 1.83.72 3.12 2.05 1.3 1.33 2 3.24.7 1.91.7 4.27 0 2.38-.7 4.29-.7 1.91-2 3.25-1.29 1.35-3.12 2.07-1.82.72-4.04.72-2.25 0-4.08-.72t-3.13-2.07q-1.3-1.34-2.01-3.25-.71-1.91-.71-4.29 0-2.36.71-4.27.71-1.91 2.01-3.24 1.3-1.33 3.13-2.05 1.83-.72 4.08-.72Zm0 16.91q2.49 0 3.69-1.68 1.2-1.68 1.2-4.91 0-3.24-1.2-4.94-1.2-1.69-3.69-1.69-2.54 0-3.76 1.7-1.22 1.71-1.22 4.93 0 3.21 1.22 4.9 1.22 1.69 3.76 1.69Zm24.12-1.76v-3.37q-2.09.1-3.51.36-1.43.26-2.28.67-.86.41-1.23.96-.37.54-.37 1.19 0 1.27.75 1.81.75.55 1.96.55 1.48 0 2.56-.54t2.12-1.63Zm-10.18-10.51-.86-1.54q3.45-3.16 8.31-3.16 1.75 0 3.14.58 1.38.57 2.34 1.6.95 1.02 1.45 2.44.5 1.43.5 3.12v12.64h-2.19q-.68 0-1.05-.2-.37-.21-.58-.83l-.43-1.45q-.76.69-1.49 1.2-.72.52-1.5.87t-1.66.54q-.89.18-1.96.18-1.27 0-2.34-.34-1.08-.34-1.86-1.02-.78-.69-1.21-1.7-.42-1.01-.42-2.36 0-.76.25-1.51t.83-1.43q.57-.69 1.49-1.29.92-.61 2.25-1.05 1.34-.45 3.11-.73 1.78-.29 4.06-.35v-1.17q0-2-.86-2.97-.86-.96-2.48-.96-1.17 0-1.94.27t-1.35.61q-.59.34-1.06.62-.48.27-1.07.27-.5 0-.86-.26-.35-.27-.56-.62Zm31.96 9.75v-8.97q-.82-.99-1.78-1.4-.97-.41-2.08-.41-1.09 0-1.97.41-.88.41-1.5 1.24-.63.83-.96 2.1-.33 1.28-.33 3.01 0 1.76.28 2.98.29 1.22.81 1.99.53.77 1.29 1.11.76.34 1.7.34 1.5 0 2.55-.62 1.05-.63 1.99-1.78Zm0-23.05h4.82v28.98h-2.95q-.95 0-1.21-.88l-.41-1.93q-1.21 1.39-2.78 2.24-1.57.86-3.65.86-1.64 0-3.01-.68-1.36-.68-2.34-1.98-.99-1.3-1.53-3.21-.53-1.91-.53-4.37 0-2.22.6-4.13.61-1.91 1.74-3.31 1.13-1.41 2.71-2.2 1.58-.79 3.55-.79 1.67 0 2.86.53t2.13 1.42v-10.55Zm19.21 8.97h4.83v20.01h-4.83v-20.01Zm5.5-5.83q0 .63-.26 1.17-.25.55-.67.96-.42.41-.99.65-.56.24-1.2.24-.63 0-1.18-.24-.56-.24-.97-.65-.41-.41-.65-.96-.25-.54-.25-1.17 0-.64.25-1.21.24-.56.65-.97.41-.41.97-.65.55-.25 1.18-.25.64 0 1.2.25.57.24.99.65.42.41.67.97.26.57.26 1.21Zm9.06 25.84H391v-20.01h2.94q.94 0 1.23.88l.31 1.48q.53-.58 1.1-1.07.58-.49 1.23-.84.66-.35 1.41-.55.75-.21 1.64-.21 1.9 0 3.11 1.02 1.22 1.03 1.83 2.73.47-1 1.17-1.71t1.54-1.16q.84-.45 1.78-.66.95-.22 1.9-.22 1.66 0 2.95.51 1.28.51 2.16 1.48.88.97 1.34 2.38.46 1.4.46 3.22v12.73h-4.82v-12.73q0-1.91-.84-2.88-.84-.96-2.46-.96-.74 0-1.37.25-.63.25-1.11.73-.48.48-.75 1.2-.28.72-.28 1.66v12.73h-4.83v-12.73q0-2.01-.81-2.93-.81-.91-2.37-.91-1.05 0-1.96.51-.91.52-1.69 1.42v14.64Zm38.42-5.17v-3.37q-2.09.1-3.51.36-1.43.26-2.28.67-.86.41-1.23.96-.37.54-.37 1.19 0 1.27.75 1.81.75.55 1.96.55 1.48 0 2.56-.54t2.12-1.63Zm-10.18-10.51-.86-1.54q3.45-3.16 8.31-3.16 1.75 0 3.14.58 1.38.57 2.34 1.6.95 1.02 1.45 2.44.5 1.43.5 3.12v12.64h-2.19q-.68 0-1.05-.2-.37-.21-.58-.83l-.43-1.45q-.76.69-1.49 1.2-.72.52-1.5.87t-1.66.54q-.89.18-1.96.18-1.27 0-2.34-.34-1.08-.34-1.86-1.02-.78-.69-1.21-1.7-.42-1.01-.42-2.36 0-.76.25-1.51t.83-1.43q.57-.69 1.49-1.29.92-.61 2.25-1.05 1.34-.45 3.11-.73 1.78-.29 4.06-.35v-1.17q0-2-.86-2.97-.86-.96-2.48-.96-1.17 0-1.94.27t-1.35.61q-.59.34-1.06.62-.48.27-1.07.27-.5 0-.86-.26-.35-.27-.56-.62Zm26.71 5.19q.9 0 1.56-.24.67-.25 1.11-.68.43-.43.66-1.03.22-.61.22-1.33 0-1.48-.88-2.35-.89-.86-2.67-.86-1.77 0-2.66.86-.88.87-.88 2.35 0 .71.22 1.31.22.6.66 1.04.44.44 1.11.69.68.24 1.55.24Zm5.44 11.39q0-.59-.35-.96t-.95-.57q-.61-.21-1.42-.31-.8-.09-1.71-.14-.91-.05-1.87-.09-.97-.04-1.89-.16-.79.45-1.29 1.06-.5.6-.5 1.4 0 .53.26.99.27.45.84.79.58.33 1.49.51.92.19 2.25.19 1.34 0 2.32-.21.97-.2 1.61-.56.63-.36.92-.86.29-.5.29-1.08Zm-.95-20.22H461v1.79q0 .86-1.03 1.05l-1.8.33q.41 1.04.41 2.27 0 1.48-.59 2.68-.6 1.2-1.65 2.04-1.05.83-2.48 1.29-1.44.46-3.1.46-.58 0-1.13-.06-.54-.06-1.07-.15-.94.56-.94 1.26 0 .61.56.89t1.47.4q.92.12 2.09.15t2.4.12q1.23.1 2.4.34 1.17.25 2.08.77.92.53 1.48 1.44.55.9.55 2.33 0 1.32-.65 2.57-.66 1.25-1.89 2.23-1.24.97-3.05 1.56-1.8.6-4.1.6-2.26 0-3.94-.44-1.68-.44-2.79-1.17t-1.66-1.69q-.54-.95-.54-1.99 0-1.4.85-2.34.84-.95 2.33-1.52-.8-.41-1.27-1.09-.47-.68-.47-1.79 0-.45.17-.93.16-.48.48-.94.33-.47.81-.89.49-.42 1.15-.75-1.52-.82-2.38-2.19-.87-1.36-.87-3.19 0-1.49.59-2.69.6-1.19 1.66-2.04 1.06-.85 2.52-1.3 1.45-.45 3.16-.45 1.29 0 2.42.27 1.13.26 2.07.77Zm12.6 7.02h9.08q0-.94-.26-1.77-.26-.83-.79-1.45-.53-.63-1.34-.99-.8-.36-1.88-.36-2.08 0-3.28 1.19-1.2 1.19-1.53 3.38Zm12.28 2.9h-12.38q.12 1.54.54 2.66.43 1.12 1.14 1.86.7.73 1.66 1.09.97.36 2.14.36 1.17 0 2.02-.28.84-.27 1.48-.6.63-.33 1.11-.6.48-.28.93-.28.6 0 .89.45l1.39 1.76q-.8.93-1.8 1.57-.99.63-2.07 1.01-1.09.38-2.21.54-1.12.15-2.17.15-2.09 0-3.88-.69-1.8-.69-3.12-2.05-1.33-1.35-2.09-3.35-.76-2-.76-4.63 0-2.05.66-3.85.67-1.81 1.91-3.14 1.23-1.34 3.02-2.12 1.78-.78 4.03-.78 1.89 0 3.49.61 1.59.6 2.75 1.76 1.15 1.16 1.8 2.85.65 1.68.65 3.85 0 1.09-.23 1.47-.24.38-.9.38Z"/></svg>